<?xml version="1.0" encoding="utf-8"?>
<!-- Generator: Adobe Illustrator 24.3.0, SVG Export Plug-In . SVG Version: 6.00 Build 0)  -->
<svg version="1.1" xmlns="http://www.w3.org/2000/svg" xmlns:xlink="http://www.w3.org/1999/xlink" x="0px" y="0px"
	 viewBox="0 0 64 64" style="enable-background:new 0 0 64 64;" xml:space="preserve">
<style type="text/css">
	.st0{fill:#FFFFFF;}
	.st1{fill:url(#SVGID_1_);}
	.st2{fill:none;stroke:#000000;stroke-width:4;stroke-linecap:round;stroke-miterlimit:10;}
	.st3{fill:none;stroke:#000000;stroke-width:3;stroke-linecap:round;stroke-miterlimit:10;}
</style>
<g id="Layer_2">
	<circle class="st0" cx="32" cy="32" r="32"/>
	<linearGradient id="SVGID_1_" gradientUnits="userSpaceOnUse" x1="16.458" y1="49.7009" x2="47.542" y2="18.6169">
		<stop  offset="0" style="stop-color:#F12711"/>
		<stop  offset="1" style="stop-color:#F5AF19"/>
	</linearGradient>
	<path class="st1" d="M51.89,37.12c0,10.98-8.9,19.89-19.89,19.89s-19.89-8.9-19.89-19.89S21.02,8.02,32,8.02
		S51.89,26.14,51.89,37.12z"/>
</g>
<g id="Layer_1">
	<path class="st2" d="M49.74,44.41C46.87,51.38,40.01,56.29,32,56.29c-10.59,0-19.17-8.58-19.17-19.17c0-3.37,0.87-7.53,2.39-11.65"
		/>
	<path class="st2" d="M17.8,19.75C21.31,13.25,26.37,8.02,32,8.02c10.59,0,19.17,18.52,19.17,29.1"/>
	<path class="st3" d="M45.56,41.24c-1.33,4.36-4.7,7.83-9,9.3"/>
	<path class="st3" d="M45.68,32.63c0.32,1.57,0.49,3.09,0.49,4.49"/>
</g>
</svg>
